<svg xmlns="http://www.w3.org/2000/svg" width="273.304" height="40" viewBox="0 0 273.304 40"><defs><style>.a{fill:#fff;}.b{fill:red;}</style></defs><g transform="translate(-160 -62.5)"><path class="a" d="M11.207-12.656a2.335,2.335,0,0,0-1-1.739,3.88,3.88,0,0,0-2.293-.622,3.717,3.717,0,0,0-2.318.643,2,2,0,0,0-.844,1.632,1.652,1.652,0,0,0,.435,1.2,3.165,3.165,0,0,0,1.129.754,9.48,9.48,0,0,0,1.4.452l1.636.409a10.822,10.822,0,0,1,2.484.908,5.37,5.37,0,0,1,1.909,1.6A4.134,4.134,0,0,1,14.489-4.9a4.627,4.627,0,0,1-1.747,3.737A7.48,7.48,0,0,1,7.866.264,7.725,7.725,0,0,1,3-1.146a5.027,5.027,0,0,1-1.909-4.01H4.2A2.5,2.5,0,0,0,5.327-3.111a4.5,4.5,0,0,0,2.514.673,4.238,4.238,0,0,0,2.514-.686,2.137,2.137,0,0,0,.972-1.8,1.713,1.713,0,0,0-.865-1.538A8.286,8.286,0,0,0,8.19-7.347L6.2-7.858A7.931,7.931,0,0,1,2.8-9.541a3.854,3.854,0,0,1-1.249-3,4.5,4.5,0,0,1,.835-2.7,5.483,5.483,0,0,1,2.288-1.8,8.034,8.034,0,0,1,3.286-.643,7.774,7.774,0,0,1,3.264.643,5.321,5.321,0,0,1,2.2,1.781,4.585,4.585,0,0,1,.822,2.612ZM23.7-13.091V-10.7H21.119v6.767a1.442,1.442,0,0,0,.409,1.223,1.649,1.649,0,0,0,.989.294,3.09,3.09,0,0,0,.533-.043q.243-.043.371-.077l.52,2.412a6.955,6.955,0,0,1-.7.187,5.867,5.867,0,0,1-1.112.119,4.436,4.436,0,0,1-2.919-.852,3.227,3.227,0,0,1-1.172-2.753V-10.7H16.176v-2.386h1.858v-3.136h3.085v3.136ZM31.858.256a6.339,6.339,0,0,1-3.324-.844,5.7,5.7,0,0,1-2.178-2.365,7.732,7.732,0,0,1-.771-3.541,7.751,7.751,0,0,1,.771-3.55,5.724,5.724,0,0,1,2.178-2.369,6.314,6.314,0,0,1,3.324-.848,6.336,6.336,0,0,1,3.328.848,5.687,5.687,0,0,1,2.178,2.369,7.788,7.788,0,0,1,.767,3.55,7.767,7.767,0,0,1-.767,3.541A5.659,5.659,0,0,1,35.186-.588,6.361,6.361,0,0,1,31.858.256Zm.017-2.472a2.654,2.654,0,0,0,1.743-.571,3.427,3.427,0,0,0,1.04-1.547A6.47,6.47,0,0,0,35-6.5a6.5,6.5,0,0,0-.345-2.178,3.486,3.486,0,0,0-1.04-1.555,2.628,2.628,0,0,0-1.743-.58,2.675,2.675,0,0,0-1.76.58A3.485,3.485,0,0,0,29.063-8.68,6.425,6.425,0,0,0,28.713-6.5a6.4,6.4,0,0,0,.349,2.169,3.426,3.426,0,0,0,1.053,1.547A2.7,2.7,0,0,0,31.875-2.216ZM46.449.256a6.308,6.308,0,0,1-3.358-.861A5.69,5.69,0,0,1,40.93-2.991a7.8,7.8,0,0,1-.754-3.5,7.728,7.728,0,0,1,.767-3.524A5.791,5.791,0,0,1,43.112-12.4a6.219,6.219,0,0,1,3.32-.861,6.515,6.515,0,0,1,2.83.584,4.889,4.889,0,0,1,1.96,1.641,4.877,4.877,0,0,1,.835,2.48H49.108a2.852,2.852,0,0,0-.848-1.581,2.487,2.487,0,0,0-1.786-.635,2.772,2.772,0,0,0-2.3,1.121A4.938,4.938,0,0,0,43.3-6.545,5.1,5.1,0,0,0,44.169-3.4a2.748,2.748,0,0,0,2.305,1.142,2.645,2.645,0,0,0,1.726-.58,2.646,2.646,0,0,0,.908-1.636h2.949a5.089,5.089,0,0,1-.818,2.455,4.845,4.845,0,0,1-1.926,1.67A6.367,6.367,0,0,1,46.449.256ZM57.682-7.67V0H54.6V-17.455h3.017v6.588h.153a3.722,3.722,0,0,1,1.419-1.756,4.408,4.408,0,0,1,2.476-.639,4.343,4.343,0,0,1,3.273,1.278A5.037,5.037,0,0,1,66.17-8.335V0H63.085V-7.858a2.929,2.929,0,0,0-.678-2.058,2.447,2.447,0,0,0-1.9-.737,2.785,2.785,0,0,0-2.033.78A2.942,2.942,0,0,0,57.682-7.67ZM73.074.264A4.837,4.837,0,0,1,69.946-.741a3.538,3.538,0,0,1-1.253-2.932A3.365,3.365,0,0,1,69.4-5.962a4.072,4.072,0,0,1,1.849-1.185,11.827,11.827,0,0,1,2.408-.507q1.73-.187,2.484-.349T76.9-8.83v-.051a1.931,1.931,0,0,0-.571-1.491,2.336,2.336,0,0,0-1.645-.528,2.93,2.93,0,0,0-1.794.494A2.445,2.445,0,0,0,72-9.239l-2.881-.409a4.484,4.484,0,0,1,2-2.7,6.659,6.659,0,0,1,3.55-.912,8.127,8.127,0,0,1,1.875.222,5.349,5.349,0,0,1,1.717.733,3.773,3.773,0,0,1,1.253,1.381,4.486,4.486,0,0,1,.473,2.165V0H77.02V-1.8h-.1A3.8,3.8,0,0,1,75.558-.354,4.463,4.463,0,0,1,73.074.264ZM73.875-2a3.031,3.031,0,0,0,2.216-.8A2.561,2.561,0,0,0,76.909-4.7V-6.239a1.87,1.87,0,0,1-.72.286q-.524.124-1.112.209l-1,.145a4.471,4.471,0,0,0-1.722.567,1.425,1.425,0,0,0-.69,1.308,1.468,1.468,0,0,0,.622,1.287A2.705,2.705,0,0,0,73.875-2ZM93.443-9.631l-2.812.307a2.286,2.286,0,0,0-.763-1.142,2.479,2.479,0,0,0-1.649-.494,2.936,2.936,0,0,0-1.615.418A1.227,1.227,0,0,0,85.96-9.46a1.14,1.14,0,0,0,.422.933,3.415,3.415,0,0,0,1.428.584l2.233.477q3.673.8,3.682,3.545a3.5,3.5,0,0,1-.716,2.178,4.7,4.7,0,0,1-1.977,1.47,7.446,7.446,0,0,1-2.9.528A6.651,6.651,0,0,1,84.264-.759a4.075,4.075,0,0,1-1.747-2.813l3.009-.29q.4,1.79,2.6,1.79a3.131,3.131,0,0,0,1.768-.447,1.317,1.317,0,0,0,.669-1.121q0-1.1-1.764-1.491L86.565-5.6a5.292,5.292,0,0,1-2.787-1.325,3.232,3.232,0,0,1-.895-2.365,3.414,3.414,0,0,1,.665-2.1,4.281,4.281,0,0,1,1.858-1.381,7.251,7.251,0,0,1,2.77-.49,5.96,5.96,0,0,1,3.626.984A4.14,4.14,0,0,1,93.443-9.631Zm9.366-3.46V-10.7h-2.582v6.767a1.442,1.442,0,0,0,.409,1.223,1.649,1.649,0,0,0,.989.294,3.09,3.09,0,0,0,.533-.043q.243-.043.371-.077l.52,2.412a6.955,6.955,0,0,1-.7.187,5.867,5.867,0,0,1-1.112.119,4.436,4.436,0,0,1-2.919-.852,3.227,3.227,0,0,1-1.172-2.753V-10.7H95.284v-2.386h1.858v-3.136h3.085v3.136ZM105.392,0V-13.091h3.085V0Zm1.551-14.949a1.787,1.787,0,0,1-1.266-.49,1.558,1.558,0,0,1-.524-1.18,1.567,1.567,0,0,1,.524-1.189,1.787,1.787,0,0,1,1.266-.49,1.776,1.776,0,0,1,1.257.49,1.568,1.568,0,0,1,.524,1.189,1.558,1.558,0,0,1-.524,1.18A1.776,1.776,0,0,1,106.943-14.949ZM117.358.256A6.308,6.308,0,0,1,114-.605a5.69,5.69,0,0,1-2.161-2.386,7.8,7.8,0,0,1-.754-3.5,7.728,7.728,0,0,1,.767-3.524,5.791,5.791,0,0,1,2.169-2.382,6.219,6.219,0,0,1,3.32-.861,6.515,6.515,0,0,1,2.83.584,4.889,4.889,0,0,1,1.96,1.641,4.877,4.877,0,0,1,.835,2.48h-2.949a2.852,2.852,0,0,0-.848-1.581,2.487,2.487,0,0,0-1.786-.635,2.772,2.772,0,0,0-2.3,1.121,4.938,4.938,0,0,0-.874,3.107,5.1,5.1,0,0,0,.865,3.145,2.748,2.748,0,0,0,2.305,1.142,2.645,2.645,0,0,0,1.726-.58,2.646,2.646,0,0,0,.908-1.636h2.949a5.089,5.089,0,0,1-.818,2.455,4.845,4.845,0,0,1-1.926,1.67A6.367,6.367,0,0,1,117.358.256ZM131.6,0V-17.455h11.182V-14.8h-8.02v4.739h7.253v2.651h-7.253V0Zm13.918,0V-13.091H148.6V0Zm1.551-14.949a1.787,1.787,0,0,1-1.266-.49,1.558,1.558,0,0,1-.524-1.18,1.567,1.567,0,0,1,.524-1.189,1.787,1.787,0,0,1,1.266-.49,1.776,1.776,0,0,1,1.257.49,1.567,1.567,0,0,1,.524,1.189,1.558,1.558,0,0,1-.524,1.18A1.776,1.776,0,0,1,147.068-14.949Zm7.79,7.278V0h-3.085V-13.091h2.949v2.224h.153a3.764,3.764,0,0,1,1.445-1.743,4.386,4.386,0,0,1,2.459-.652,4.3,4.3,0,0,1,3.26,1.287,5.026,5.026,0,0,1,1.223,3.639V0h-3.085V-7.858a2.932,2.932,0,0,0-.678-2.054,2.407,2.407,0,0,0-1.871-.741,2.692,2.692,0,0,0-1.994.78A2.989,2.989,0,0,0,154.858-7.67ZM170.173.264a4.837,4.837,0,0,1-3.128-1.006,3.538,3.538,0,0,1-1.253-2.932,3.365,3.365,0,0,1,.712-2.288,4.072,4.072,0,0,1,1.849-1.185,11.827,11.827,0,0,1,2.408-.507q1.73-.187,2.484-.349T174-8.83v-.051a1.931,1.931,0,0,0-.571-1.491,2.336,2.336,0,0,0-1.645-.528,2.93,2.93,0,0,0-1.794.494,2.445,2.445,0,0,0-.891,1.168l-2.881-.409a4.484,4.484,0,0,1,2-2.7,6.659,6.659,0,0,1,3.55-.912,8.127,8.127,0,0,1,1.875.222,5.349,5.349,0,0,1,1.717.733,3.773,3.773,0,0,1,1.253,1.381,4.486,4.486,0,0,1,.473,2.165V0h-2.966V-1.8h-.1a3.8,3.8,0,0,1-1.359,1.445A4.464,4.464,0,0,1,170.173.264Zm.8-2.267a3.031,3.031,0,0,0,2.216-.8,2.561,2.561,0,0,0,.818-1.892V-6.239a1.87,1.87,0,0,1-.72.286q-.524.124-1.112.209l-1,.145a4.47,4.47,0,0,0-1.722.567,1.425,1.425,0,0,0-.69,1.308,1.468,1.468,0,0,0,.622,1.287A2.705,2.705,0,0,0,170.974-2ZM183.281-7.67V0H180.2V-13.091h2.949v2.224h.153a3.764,3.764,0,0,1,1.445-1.743,4.386,4.386,0,0,1,2.459-.652,4.3,4.3,0,0,1,3.26,1.287,5.026,5.026,0,0,1,1.223,3.639V0H188.6V-7.858a2.932,2.932,0,0,0-.678-2.054,2.407,2.407,0,0,0-1.871-.741,2.692,2.692,0,0,0-1.994.78A2.989,2.989,0,0,0,183.281-7.67ZM200.54.256a6.308,6.308,0,0,1-3.358-.861,5.69,5.69,0,0,1-2.161-2.386,7.8,7.8,0,0,1-.754-3.5,7.728,7.728,0,0,1,.767-3.524A5.791,5.791,0,0,1,197.2-12.4a6.219,6.219,0,0,1,3.32-.861,6.515,6.515,0,0,1,2.83.584,4.889,4.889,0,0,1,1.96,1.641,4.877,4.877,0,0,1,.835,2.48H203.2a2.852,2.852,0,0,0-.848-1.581,2.487,2.487,0,0,0-1.786-.635,2.772,2.772,0,0,0-2.3,1.121,4.938,4.938,0,0,0-.874,3.107A5.1,5.1,0,0,0,198.26-3.4a2.748,2.748,0,0,0,2.305,1.142,2.645,2.645,0,0,0,1.726-.58,2.646,2.646,0,0,0,.908-1.636h2.949a5.089,5.089,0,0,1-.818,2.455A4.845,4.845,0,0,1,203.4-.349,6.367,6.367,0,0,1,200.54.256Zm13.943,0a6.662,6.662,0,0,1-3.4-.827,5.533,5.533,0,0,1-2.195-2.335,7.768,7.768,0,0,1-.767-3.562,7.821,7.821,0,0,1,.767-3.55,5.769,5.769,0,0,1,2.161-2.386,6.116,6.116,0,0,1,3.268-.857,6.458,6.458,0,0,1,2.974.695,5.2,5.2,0,0,1,2.186,2.156,7.62,7.62,0,0,1,.822,3.763V-5.7h-9.119a3.69,3.69,0,0,0,.933,2.616,3.2,3.2,0,0,0,2.408.938,3.332,3.332,0,0,0,1.726-.43A2.409,2.409,0,0,0,217.3-3.835l2.881.324a4.512,4.512,0,0,1-1.9,2.736A6.526,6.526,0,0,1,214.483.256Zm-3.29-8.037h6.153a3.114,3.114,0,0,0-.831-2.207,2.826,2.826,0,0,0-2.152-.869,2.942,2.942,0,0,0-2.241.912A3.324,3.324,0,0,0,211.193-7.781Z" transform="translate(213 91)"/><g transform="translate(-940.75 -528.721)"><g transform="translate(1100.75 591.221)"><circle class="a" cx="3.266" cy="3.266" r="3.266" transform="translate(6.472)"/><path class="a" d="M1104.635,599.855a1.941,1.941,0,1,0-1.942-1.941A1.941,1.941,0,0,0,1104.635,599.855Z" transform="translate(-1100.816 -591.383)"/><path class="a" d="M1106.044,605.518a2.647,2.647,0,1,0-2.647,2.647A2.647,2.647,0,0,0,1106.044,605.518Z" transform="translate(-1100.75 -591.618)"/><path class="b" d="M1104.806,614.87a4.246,4.246,0,1,0,4.246-4.246A4.246,4.246,0,0,0,1104.806,614.87Z" transform="translate(-1100.888 -591.883)"/><path class="a" d="M1106.174,623.759a1.607,1.607,0,1,0,1.607,1.606A1.607,1.607,0,0,0,1106.174,623.759Z" transform="translate(-1100.88 -592.33)"/><circle class="a" cx="1.233" cy="1.233" r="1.233" transform="translate(7.462 28.689)"/><path class="a" d="M1104.936,610.6a.582.582,0,1,0-.582.581A.582.582,0,0,0,1104.936,610.6Z" transform="translate(-1100.853 -591.862)"/><path class="a" d="M1117.013,618.373a1.233,1.233,0,1,0-1.233,1.233A1.232,1.232,0,0,0,1117.013,618.373Z" transform="translate(-1101.22 -592.105)"/><path class="a" d="M1135.771,612.4a18.235,18.235,0,0,0-7.4-4.356l-2.309-.787a14.089,14.089,0,0,1-4.462-2.2,3.284,3.284,0,0,1-1.26-2.52,2.624,2.624,0,0,1,1.233-2.23,5.7,5.7,0,0,1,3.333-.866,5,5,0,0,1,3.254,1.024,5.523,5.523,0,0,1,.884.905,2.746,2.746,0,0,0,3.24.833l2.158-.911a2.755,2.755,0,0,0,1.32-3.921l-.017-.029a9.781,9.781,0,0,0-2.336-2.65,12.4,12.4,0,0,0-3.569-1.942,16.426,16.426,0,0,0-10.13.079,12.315,12.315,0,0,0-3.428,1.877,5.524,5.524,0,0,1-2.541,4.457,4.24,4.24,0,1,0-.17,8.269,10.786,10.786,0,0,0,1.626,2.193,13.221,13.221,0,0,0,2.808,2.231,17.374,17.374,0,0,0,3.019,1.443l2.309.839a33.714,33.714,0,0,1,3.306,1.391,11.057,11.057,0,0,1,2.1,1.313,3.766,3.766,0,0,1,1.469,3.071,2.94,2.94,0,0,1-.42,1.574,3.668,3.668,0,0,1-1.076,1.128,4.591,4.591,0,0,1-1.522.656,7.6,7.6,0,0,1-1.81.211,5.724,5.724,0,0,1-4.462-1.732,8.941,8.941,0,0,1-1.268-1.81,3.131,3.131,0,0,0-1.779-1.492,2.359,2.359,0,0,1-4.083.827,3.125,3.125,0,0,0-1.566,4.3,13.906,13.906,0,0,0,4.1,4.87,14.827,14.827,0,0,0,9.054,2.808,15.781,15.781,0,0,0,4.593-.709,13.222,13.222,0,0,0,4.2-2.125,11.186,11.186,0,0,0,3.044-3.57,10.409,10.409,0,0,0,1.181-5.09A10.159,10.159,0,0,0,1135.771,612.4Z" transform="translate(-1101.013 -591.247)"/></g></g></g></svg>