<svg xmlns="http://www.w3.org/2000/svg" width="30" height="30" viewBox="0 0 30 30"><defs><style>.a{fill:#fff;}</style></defs><g transform="translate(-998 -2890)"><g transform="translate(998 2890)"><circle cx="15" cy="15" r="15"/><path d="M5.643,12.869,20.105,7.293c.671-.243,1.257.164,1.04,1.179h0l-2.462,11.6c-.182.823-.671,1.023-1.355.635l-3.75-2.764L11.77,19.685a.946.946,0,0,1-.756.369l.266-3.816,6.95-6.279c.3-.266-.068-.416-.466-.151L9.175,15.215l-3.7-1.155c-.8-.255-.821-.8.17-1.191Z" transform="translate(1.221 1.806)"/></g><path class="a" d="M16.564,4.175,18,2.8V2.5H13.024L9.478,11.326,5.444,2.5H.227v.3L1.905,4.82a.7.7,0,0,1,.227.587v7.937a.905.905,0,0,1-.242.787L0,16.423v.3H5.359v-.3l-1.89-2.287a.933.933,0,0,1-.26-.787V6.48l4.7,10.244h.547L12.5,6.479V14.64c0,.215,0,.259-.141.4l-1.455,1.408v.3h7.059v-.3l-1.4-1.373a.417.417,0,0,1-.161-.4V4.575a.415.415,0,0,1,.16-.4Z" transform="translate(1004 2895.5)"/></g></svg>